<svg xmlns="http://www.w3.org/2000/svg" viewBox="0 0 700 240" width="100%" height="100%">
  <defs>
    <linearGradient id="grad4_dm" x1="0%" y1="0%" x2="100%" y2="0%">
      <stop offset="0%" stop-color="#5b21b6" />
      <stop offset="50%" stop-color="#7c3aed" />
      <stop offset="100%" stop-color="#a78bfa" />
    </linearGradient>
    <linearGradient id="grad4_dark_dm" x1="0%" y1="0%" x2="100%" y2="0%">
      <stop offset="0%" stop-color="#4c1d95" />
      <stop offset="100%" stop-color="#5b21b6" />
    </linearGradient>
    <style>
      .brand-title-dm { font-family: system-ui, -apple-system, 'Segoe UI', Roboto, Helvetica, Arial, sans-serif; font-size: 88px; font-weight: 900; fill: #ffffff; letter-spacing: -2px; }
      .brand-sub-dm { font-family: system-ui, -apple-system, 'Segoe UI', Roboto, Helvetica, Arial, sans-serif; font-size: 26px; font-weight: 800; fill: #a78bfa; letter-spacing: 7px; }
      .brand-tag-dm { font-family: system-ui, -apple-system, 'Segoe UI', Roboto, Helvetica, Arial, sans-serif; font-size: 13px; font-weight: 600; fill: #a1a1aa; letter-spacing: 3px; }
    </style>
  </defs>

  <!-- ICON: Dynamic Data Stream / High-Speed Code Ingestion -->
  <g transform="translate(30, 20)">
    <rect x="20" y="30" width="30" height="12" rx="6" fill="#c4b5fd" />
    <rect x="60" y="30" width="50" height="12" rx="6" fill="url(#grad4_dm)" />
    <path d="M 120 36 L 160 36 L 175 60" fill="none" stroke="url(#grad4_dm)" stroke-width="8" stroke-linecap="round" stroke-linejoin="round" />
    <rect x="10" y="65" width="25" height="14" rx="7" fill="#7c3aed" />
    <rect x="45" y="65" width="75" height="14" rx="7" fill="url(#grad4_dark_dm)" />
    <path d="M 130 72 L 180 72 L 195 90" fill="none" stroke="url(#grad4_dm)" stroke-width="10" stroke-linecap="round" stroke-linejoin="round" />
    <rect x="30" y="100" width="40" height="14" rx="7" fill="#a78bfa" />
    <path d="M 80 107 L 150 107" fill="none" stroke="url(#grad4_dm)" stroke-width="10" stroke-linecap="round" />
    <circle cx="195" cy="107" r="16" fill="url(#grad4_dm)" />
    <circle cx="195" cy="107" r="7" fill="#ffffff" />
    <circle cx="195" cy="107" r="3" fill="#4c1d95" />
    <rect x="15" y="135" width="60" height="14" rx="7" fill="url(#grad4_dark_dm)" />
    <path d="M 85 142 L 165 142 L 195 125" fill="none" stroke="url(#grad4_dm)" stroke-width="10" stroke-linecap="round" stroke-linejoin="round" />
    <rect x="35" y="170" width="45" height="12" rx="6" fill="#c4b5fd" />
    <path d="M 90 176 L 140 176 L 175 150" fill="none" stroke="url(#grad4_dm)" stroke-width="8" stroke-linecap="round" stroke-linejoin="round" />
  </g>

  <!-- TEXT LOCKUP -->
  <g transform="translate(280, 5)">
    <text x="0" y="95" class="brand-title-dm">OKF</text>
    <text x="0" y="135" class="brand-sub-dm">GENERATOR</text>
    <text x="0" y="165" class="brand-tag-dm">HIGH-VELOCITY CODEBASE PARSER</text>
  </g>
</svg>
