<svg xmlns="http://www.w3.org/2000/svg" viewBox="0 0 800 240" width="100%" height="100%">
  <defs>
    <linearGradient id="grad4" x1="0%" y1="0%" x2="100%" y2="0%">
      <stop offset="0%" stop-color="#5b21b6" />
      <stop offset="50%" stop-color="#7c3aed" />
      <stop offset="100%" stop-color="#a78bfa" />
    </linearGradient>
    <linearGradient id="grad4_dark" x1="0%" y1="0%" x2="100%" y2="0%">
      <stop offset="0%" stop-color="#4c1d95" />
      <stop offset="100%" stop-color="#5b21b6" />
    </linearGradient>
    <style>
      .brand-title { font-family: system-ui, -apple-system, 'Segoe UI', Roboto, Helvetica, Arial, sans-serif; font-size: 104px; font-weight: 900; fill: #1f2937; letter-spacing: -2px; }
      .brand-sub { font-family: system-ui, -apple-system, 'Segoe UI', Roboto, Helvetica, Arial, sans-serif; font-size: 32px; font-weight: 800; fill: #5b21b6; letter-spacing: 8px; }
      .brand-tag { font-family: system-ui, -apple-system, 'Segoe UI', Roboto, Helvetica, Arial, sans-serif; font-size: 16px; font-weight: 600; fill: #71717a; letter-spacing: 3.5px; }
    </style>
  </defs>

  <!-- ICON: Vertically and horizontally centered relative to the text -->
  <g transform="translate(40, 18)">
    <rect x="20" y="28" width="30" height="16" rx="8" fill="#c4b5fd" />
    <rect x="60" y="28" width="50" height="16" rx="8" fill="url(#grad4)" />
    <path d="M 120 36 L 160 36 L 175 60" fill="none" stroke="url(#grad4)" stroke-width="12" stroke-linecap="round" stroke-linejoin="round" />
    
    <rect x="10" y="63" width="25" height="18" rx="9" fill="#7c3aed" />
    <rect x="45" y="63" width="75" height="18" rx="9" fill="url(#grad4_dark)" />
    <path d="M 130 72 L 180 72 L 195 90" fill="none" stroke="url(#grad4)" stroke-width="14" stroke-linecap="round" stroke-linejoin="round" />
    
    <rect x="30" y="98" width="40" height="18" rx="9" fill="#a78bfa" />
    <path d="M 80 107 L 148 107" fill="none" stroke="url(#grad4)" stroke-width="14" stroke-linecap="round" />
    <circle cx="195" cy="107" r="18" fill="url(#grad4)" />
    <circle cx="195" cy="107" r="8" fill="#ffffff" />
    <circle cx="195" cy="107" r="3.5" fill="#4c1d95" />
    
    <rect x="15" y="133" width="60" height="18" rx="9" fill="url(#grad4_dark)" />
    <path d="M 85 142 L 165 142 L 195 125" fill="none" stroke="url(#grad4)" stroke-width="14" stroke-linecap="round" stroke-linejoin="round" />
    
    <rect x="35" y="168" width="45" height="16" rx="8" fill="#c4b5fd" />
    <path d="M 90 176 L 140 176 L 175 150" fill="none" stroke="url(#grad4)" stroke-width="12" stroke-linecap="round" stroke-linejoin="round" />
  </g>

  <!-- TEXT LOCKUP: Adjusted vertical baselines for perfect center alignment -->
  <g transform="translate(335, 12)">
    <text x="0" y="105" class="brand-title">OKF</text>
    <text x="0" y="150" class="brand-sub">GENERATOR</text>
    <text x="0" y="185" class="brand-tag">HIGH-VELOCITY CODEBASE PARSER</text>
  </g>
</svg>
