<svg xmlns="http://www.w3.org/2000/svg" viewBox="0 0 220 220" width="32" height="32">
  <rect x="20" y="56" width="30" height="12" rx="6" fill="#ffffff" opacity="0.6"/>
  <rect x="60" y="56" width="50" height="12" rx="6" fill="#ffffff"/>
  <path d="M 120 62 L 160 62 L 175 86" fill="none" stroke="#ffffff" stroke-width="8" stroke-linecap="round" stroke-linejoin="round"/>
  <rect x="10" y="91" width="25" height="14" rx="7" fill="#ffffff"/>
  <rect x="45" y="91" width="75" height="14" rx="7" fill="#ffffff" opacity="0.8"/>
  <path d="M 130 98 L 180 98 L 195 116" fill="none" stroke="#ffffff" stroke-width="10" stroke-linecap="round" stroke-linejoin="round"/>
  <rect x="30" y="126" width="40" height="14" rx="7" fill="#ffffff" opacity="0.7"/>
  <path d="M 80 133 L 150 133" fill="none" stroke="#ffffff" stroke-width="10" stroke-linecap="round"/>
  <circle cx="195" cy="133" r="16" fill="#ffffff"/>
  <circle cx="195" cy="133" r="7" fill="#5b21b6"/>
  <rect x="15" y="161" width="60" height="14" rx="7" fill="#ffffff" opacity="0.8"/>
  <path d="M 85 168 L 165 168 L 195 151" fill="none" stroke="#ffffff" stroke-width="10" stroke-linecap="round" stroke-linejoin="round"/>
  <rect x="35" y="196" width="45" height="12" rx="6" fill="#ffffff" opacity="0.6"/>
  <path d="M 90 202 L 140 202 L 175 176" fill="none" stroke="#ffffff" stroke-width="8" stroke-linecap="round" stroke-linejoin="round"/>
</svg>
